<svg xmlns="http://www.w3.org/2000/svg" xmlns:xlink="http://www.w3.org/1999/xlink" width="500" zoomAndPan="magnify" viewBox="0 0 375 374.999991" height="500" preserveAspectRatio="xMidYMid meet" version="1.2"><defs><clipPath id="60e5147a77"><path d="M 73 52.0625 L 302 52.0625 L 302 322 L 73 322 Z M 73 52.0625 "/></clipPath></defs><g id="ce93eed868"><g clip-rule="nonzero" clip-path="url(#60e5147a77)"><path style=" stroke:none;fill-rule:nonzero;fill:#1c2120;fill-opacity:1;" d="M 155.851562 204.714844 C 156.367188 220.878906 164.3125 235.828125 174.476562 248.027344 C 179.496094 254.253906 185.402344 259.742188 191.007812 265.363281 C 196.566406 271.058594 201.699219 277.167969 206.613281 283.433594 L 221.171875 302.441406 C 226.171875 308.621094 231.246094 315.105469 238.457031 319.207031 C 242.046875 321.214844 246.4375 322.074219 250.554688 321.171875 C 254.664062 320.300781 258.292969 318.117188 261.339844 315.277344 C 267.253906 309.164062 269.035156 300.703125 270.285156 292.898438 C 272.625 277.09375 273.761719 260.992188 280.453125 246.625 C 282.203125 243.125 283.976562 239.613281 286.300781 236.453125 L 289.628906 231.445312 C 290.179688 230.574219 290.785156 229.738281 291.28125 228.839844 L 292.632812 226.089844 C 296.171875 218.722656 298.214844 210.804688 299.5625 202.851562 C 301.972656 186.886719 301.765625 170.539062 298.480469 154.671875 C 296.8125 146.769531 294.429688 138.90625 290.417969 131.679688 C 286.464844 124.375 280.152344 118.421875 273.136719 114.222656 C 258.886719 105.914062 243.085938 102.355469 228.28125 96.746094 C 220.851562 94 213.527344 90.972656 206.640625 87.140625 C 199.835938 83.316406 193.167969 78.652344 186.089844 74.886719 C 172.097656 67.027344 157.214844 60.679688 141.679688 56.445312 C 133.875 54.488281 125.894531 53.054688 117.789062 52.859375 C 109.765625 52.699219 101.28125 53.792969 94.21875 58.253906 C 92.507812 59.421875 90.746094 60.527344 89.429688 62.167969 C 88.730469 62.933594 87.976562 63.65625 87.335938 64.460938 L 85.609375 67 C 83.445312 70.453125 81.785156 74.140625 80.25 77.863281 C 77.300781 85.363281 75.226562 93.179688 74.085938 101.144531 C 72.996094 109.109375 72.851562 117.234375 74.035156 125.203125 C 74.347656 127.195312 74.632812 129.1875 75.179688 131.128906 C 75.632812 133.097656 76.136719 135.042969 76.863281 136.929688 C 77.9375 140.796875 80.019531 144.503906 82.695312 147.523438 C 88.066406 153.640625 95.019531 157.914062 101.949219 161.839844 C 108.9375 165.746094 116.148438 169.171875 123.242188 172.820312 C 130.308594 176.480469 137.390625 180.238281 143.667969 185.144531 C 149.839844 189.914062 155.503906 196.558594 155.851562 204.714844 Z M 156.054688 204.707031 C 155.890625 200.679688 154.410156 196.792969 152.15625 193.492188 C 149.90625 190.171875 146.984375 187.371094 143.867188 184.886719 C 137.578125 179.925781 130.5 176.128906 123.441406 172.429688 C 116.359375 168.746094 109.160156 165.285156 102.222656 161.355469 C 95.332031 157.410156 88.445312 153.113281 83.203125 147.078125 C 80.582031 144.078125 78.609375 140.550781 77.554688 136.695312 C 76.84375 134.832031 76.355469 132.902344 75.917969 130.960938 C 75.375 129.035156 75.113281 127.058594 74.804688 125.09375 C 73.679688 117.207031 73.855469 109.160156 74.972656 101.273438 C 76.140625 93.390625 78.238281 85.648438 81.1875 78.25 C 82.722656 74.578125 84.386719 70.9375 86.515625 67.578125 L 88.199219 65.121094 C 88.820312 64.347656 89.546875 63.671875 90.214844 62.941406 C 91.472656 61.375 93.171875 60.332031 94.8125 59.21875 C 101.589844 54.972656 109.859375 53.917969 117.753906 54.113281 C 125.714844 54.34375 133.597656 55.800781 141.3125 57.769531 C 156.671875 62.035156 171.425781 68.410156 185.285156 76.28125 C 192.3125 80.066406 198.828125 84.6875 205.785156 88.644531 C 212.761719 92.566406 220.152344 95.664062 227.625 98.464844 C 242.503906 104.164062 258.285156 107.855469 272.046875 115.988281 C 278.855469 120.066406 284.855469 125.648438 288.695312 132.652344 C 292.59375 139.597656 294.980469 147.292969 296.660156 155.058594 C 299.972656 170.648438 300.253906 186.851562 297.953125 202.601562 C 296.664062 210.453125 294.679688 218.253906 291.273438 225.441406 C 287.84375 232.605469 282.304688 238.640625 279.179688 246.058594 C 272.441406 260.734375 271.394531 277.019531 269.136719 292.726562 C 267.945312 300.496094 266.1875 308.75 260.597656 314.554688 C 260.015625 315.378906 259.082031 315.820312 258.324219 316.445312 C 257.503906 316.992188 256.792969 317.714844 255.867188 318.101562 C 254.132812 319.070312 252.265625 319.773438 250.339844 320.222656 C 246.453125 321.089844 242.347656 320.316406 238.875 318.402344 C 231.894531 314.496094 226.78125 308.085938 221.777344 301.945312 L 207.128906 283.015625 C 202.171875 276.761719 196.996094 270.660156 191.390625 264.972656 C 185.726562 259.339844 179.847656 253.941406 174.804688 247.738281 C 164.628906 235.640625 156.652344 220.800781 156.054688 204.707031 Z M 156.054688 204.707031 "/></g><path style=" stroke:none;fill-rule:nonzero;fill:#1c2120;fill-opacity:1;" d="M 158.628906 195.800781 C 159.050781 209.214844 165.59375 221.648438 173.992188 231.800781 C 178.125 237.003906 183.046875 241.550781 187.65625 246.246094 C 192.277344 250.960938 196.570312 255.992188 200.636719 261.203125 L 212.710938 276.980469 C 216.847656 282.128906 220.988281 287.542969 226.910156 291.097656 C 229.761719 292.988281 233.445312 293.796875 236.890625 293.285156 L 239.464844 292.769531 L 241.832031 291.714844 C 243.480469 291.144531 244.773438 289.898438 246.214844 288.925781 C 251.410156 284.046875 253.121094 276.96875 254.242188 270.507812 C 256.292969 257.375 257.042969 244.015625 262.425781 232.0625 C 262.988281 230.53125 263.800781 229.128906 264.558594 227.695312 C 265.292969 226.246094 266.078125 224.835938 267.042969 223.53125 C 268.757812 220.898438 270.882812 218.09375 272.4375 215.042969 C 275.554688 208.949219 277.269531 202.320312 278.261719 195.671875 C 280.011719 182.332031 279.339844 168.722656 276.101562 155.644531 C 274.464844 149.117188 272.230469 142.664062 268.765625 136.726562 C 265.375 130.726562 260.082031 125.726562 254.214844 122.265625 C 242.296875 115.402344 229.191406 112.457031 216.917969 107.816406 C 210.757812 105.539062 204.683594 103.054688 198.984375 99.890625 C 193.347656 96.75 187.816406 92.875 181.992188 89.660156 C 170.46875 82.992188 158.335938 77.289062 145.574219 73.257812 C 139.164062 71.371094 132.585938 69.878906 125.835938 69.507812 C 119.164062 69.160156 111.984375 69.992188 106.183594 73.953125 C 105.492188 74.476562 104.699219 74.867188 104.101562 75.5 L 102.308594 77.398438 C 101.679688 78.007812 101.140625 78.675781 100.691406 79.40625 C 100.191406 80.101562 99.734375 80.816406 99.324219 81.554688 C 97.597656 84.464844 96.207031 87.53125 95.019531 90.65625 C 92.632812 96.910156 90.953125 103.425781 90.125 110.0625 C 89.285156 116.6875 89.234375 123.445312 90.296875 130.058594 C 90.515625 131.714844 90.859375 133.359375 91.304688 134.976562 C 91.65625 136.617188 92.1875 138.203125 92.765625 139.777344 C 93.726562 142.984375 95.578125 146.003906 97.828125 148.476562 C 102.390625 153.476562 108.15625 157.015625 113.933594 160.238281 C 119.738281 163.460938 125.726562 166.304688 131.617188 169.324219 C 137.480469 172.363281 143.351562 175.476562 148.546875 179.558594 C 153.671875 183.527344 158.339844 189.042969 158.628906 195.800781 Z M 158.835938 195.789062 C 158.585938 188.941406 153.878906 183.324219 148.757812 179.304688 C 143.550781 175.167969 137.675781 172.007812 131.824219 168.933594 C 125.949219 165.875 119.976562 162.996094 114.214844 159.753906 C 108.480469 156.511719 102.773438 152.949219 98.339844 148.03125 C 96.144531 145.574219 94.402344 142.714844 93.464844 139.539062 C 92.90625 137.984375 92.390625 136.414062 92.054688 134.792969 C 91.621094 133.195312 91.289062 131.582031 91.085938 129.9375 C 90.078125 123.40625 90.164062 116.734375 91.03125 110.183594 C 91.890625 103.632812 93.589844 97.191406 95.980469 91.035156 C 98.414062 84.992188 101.328125 78.628906 106.828125 74.898438 C 112.316406 71.179688 119.246094 70.378906 125.769531 70.765625 C 132.363281 71.167969 138.847656 72.671875 145.171875 74.574219 C 157.761719 78.636719 169.78125 84.363281 181.1875 91.050781 C 186.964844 94.289062 192.363281 98.128906 198.148438 101.398438 C 203.9375 104.660156 210.078125 107.210938 216.273438 109.542969 C 228.625 114.273438 241.707031 117.347656 253.148438 124.042969 C 258.820312 127.390625 263.789062 131.996094 267.082031 137.734375 C 270.441406 143.417969 272.675781 149.707031 274.316406 156.097656 C 277.566406 168.902344 278.304688 182.347656 276.664062 195.445312 C 275.726562 201.972656 274.078125 208.46875 271.109375 214.359375 C 269.632812 217.300781 267.644531 219.949219 265.835938 222.75 C 264.859375 224.089844 264.054688 225.546875 263.316406 227.035156 C 262.546875 228.507812 261.726562 229.949219 261.15625 231.519531 C 255.730469 243.773438 255.074219 257.304688 253.113281 270.320312 C 252.042969 276.738281 250.371094 283.570312 245.523438 288.160156 C 244.167969 289.078125 242.976562 290.265625 241.398438 290.8125 L 239.15625 291.828125 L 236.75 292.320312 C 233.539062 292.808594 230.125 292.109375 227.367188 290.304688 C 221.664062 286.9375 217.476562 281.585938 213.332031 276.488281 L 201.171875 260.785156 C 197.066406 255.585938 192.730469 250.5625 188.058594 245.855469 C 183.386719 241.15625 178.496094 236.6875 174.335938 231.527344 C 165.914062 221.457031 159.335938 209.136719 158.835938 195.789062 Z M 158.835938 195.789062 "/><path style=" stroke:none;fill-rule:nonzero;fill:#1c2120;fill-opacity:1;" d="M 170.105469 193.136719 C 171.125 201.914062 173.371094 210.644531 177.519531 218.523438 C 181.578125 226.402344 188.074219 233.234375 196.25 237.007812 C 200.339844 238.859375 204.769531 239.949219 209.25 240.246094 C 213.675781 240.5 218.386719 240.28125 222.574219 238.3125 C 230.941406 234.480469 236.90625 227.09375 241.210938 219.320312 C 245.527344 211.445312 248.359375 202.828125 249.785156 193.964844 C 251.308594 185.078125 250.964844 176.035156 249.902344 167.160156 C 248.710938 158.277344 246.246094 149.421875 241.730469 141.480469 C 237.242188 133.574219 230.578125 126.714844 222.496094 122.367188 C 218.453125 120.097656 214.191406 118.6875 210.042969 117.121094 C 205.859375 115.609375 201.65625 114.1875 197.4375 112.824219 C 188.992188 110.101562 180.476562 107.613281 171.871094 105.425781 C 163.261719 103.28125 154.578125 101.347656 145.703125 100.28125 C 141.269531 99.789062 136.785156 99.394531 132.230469 99.84375 C 129.96875 100.035156 127.644531 100.496094 125.457031 101.597656 C 124.398438 102.074219 123.285156 103.089844 122.621094 103.925781 C 121.882812 104.777344 121.191406 105.691406 120.53125 106.617188 C 117.804688 110.300781 116.4375 115.171875 116.972656 119.730469 C 117.410156 124.300781 118.902344 128.558594 120.449219 132.722656 C 122.476562 137.074219 125.96875 140.007812 129.226562 142.992188 C 132.550781 145.929688 135.972656 148.730469 139.355469 151.570312 C 146.085938 157.269531 152.796875 163.050781 158.453125 169.820312 C 164.070312 176.535156 168.785156 184.355469 170.105469 193.136719 Z M 170.3125 193.113281 C 169.066406 184.257812 164.378906 176.339844 158.792969 169.542969 C 153.167969 162.691406 146.480469 156.824219 139.796875 151.0625 C 136.4375 148.1875 133.042969 145.359375 129.757812 142.40625 C 126.550781 139.4375 123.117188 136.414062 121.308594 132.410156 C 119.804688 128.273438 118.378906 124.042969 117.996094 119.65625 C 117.539062 115.261719 118.828125 110.8125 121.46875 107.277344 C 122.789062 105.550781 124.070312 103.628906 126.023438 102.664062 C 127.96875 101.707031 130.164062 101.261719 132.347656 101.097656 C 136.738281 100.703125 141.164062 101.125 145.539062 101.648438 C 154.289062 102.777344 162.921875 104.78125 171.46875 106.992188 C 180.011719 109.246094 188.476562 111.789062 196.859375 114.578125 C 201.050781 115.972656 205.226562 117.429688 209.363281 118.960938 C 213.476562 120.558594 217.679688 122 221.496094 124.199219 C 229.285156 128.324219 235.726562 134.808594 240.128906 142.417969 C 244.5625 150.054688 247.058594 158.679688 248.300781 167.398438 C 249.421875 176.125 249.839844 185.050781 248.417969 193.769531 C 247.089844 202.488281 244.375 211.007812 240.195312 218.785156 C 236.039062 226.46875 230.234375 233.734375 222.195312 237.488281 C 218.199219 239.417969 213.652344 239.671875 209.289062 239.464844 C 204.890625 239.210938 200.546875 238.183594 196.523438 236.402344 C 188.46875 232.773438 181.988281 226.105469 177.902344 218.324219 C 173.726562 210.535156 171.40625 201.863281 170.3125 193.113281 Z M 170.3125 193.113281 "/><path style=" stroke:none;fill-rule:nonzero;fill:#1c2120;fill-opacity:1;" d="M 179.050781 193.0625 C 181.277344 198.234375 183.8125 203.292969 186.914062 208.019531 C 189.984375 212.738281 193.726562 217.140625 198.464844 220.347656 C 200.867188 221.875 203.558594 223.078125 206.449219 223.4375 C 209.332031 223.816406 212.339844 223.289062 214.964844 221.976562 C 220.296875 219.273438 223.613281 214.0625 226.015625 208.9375 C 230.753906 198.4375 232.414062 186.910156 232.777344 175.5625 C 232.785156 172.691406 232.914062 169.929688 232.59375 166.898438 C 232.253906 163.929688 231.4375 161.027344 230.308594 158.3125 C 228.007812 152.878906 224.726562 148.074219 221.242188 143.566406 C 219.46875 141.328125 217.601562 139.1875 215.726562 137.058594 C 213.859375 135 211.992188 132.742188 209.59375 130.867188 C 204.964844 127.128906 199.519531 124.808594 193.984375 123.203125 C 188.414062 121.675781 182.605469 120.9375 176.800781 121.476562 C 171.152344 122.074219 164.882812 123.789062 161.199219 128.902344 C 159.472656 131.457031 158.855469 134.558594 158.933594 137.480469 C 159.011719 140.417969 159.628906 143.269531 160.523438 145.980469 C 162.230469 151.445312 164.921875 156.492188 167.621094 161.410156 C 172.910156 171.277344 174.539062 182.710938 179.050781 193.0625 Z M 179.238281 192.980469 C 174.882812 182.613281 173.433594 171.1875 168.226562 161.09375 C 165.589844 156.128906 163 151.105469 161.398438 145.710938 C 159.78125 140.484375 158.933594 134.292969 162.136719 129.550781 C 165.5 124.964844 171.464844 123.320312 176.921875 122.84375 C 182.511719 122.398438 188.15625 123.183594 193.535156 124.738281 C 198.878906 126.363281 204.117188 128.703125 208.429688 132.28125 C 210.613281 134.023438 212.394531 136.21875 214.25 138.332031 C 216.078125 140.46875 217.894531 142.609375 219.613281 144.835938 C 223.066406 149.253906 226.300781 153.914062 228.523438 159.0625 C 229.621094 161.632812 230.402344 164.347656 230.738281 167.121094 C 231.066406 169.890625 230.972656 172.726562 230.984375 175.523438 C 230.789062 186.714844 229.414062 198.125 224.96875 208.46875 C 222.722656 213.519531 219.59375 218.605469 214.597656 221.25 C 212.132812 222.542969 209.289062 223.101562 206.519531 222.796875 C 203.746094 222.503906 201.09375 221.417969 198.730469 219.925781 C 194.054688 216.820312 190.300781 212.484375 187.207031 207.816406 C 184.085938 203.140625 181.507812 198.121094 179.238281 192.980469 Z M 179.238281 192.980469 "/><path style=" stroke:none;fill-rule:nonzero;fill:#1c2120;fill-opacity:1;" d="M 187.929688 174.578125 C 190.601562 180.640625 193.765625 186.910156 199.425781 190.902344 C 202.203125 192.835938 206.152344 193.667969 209.433594 191.984375 C 212.722656 190.359375 214.753906 187.222656 216.25 184.160156 C 219.175781 177.867188 220.273438 170.972656 220.554688 164.171875 C 220.570312 162.441406 220.65625 160.824219 220.46875 158.933594 C 220.269531 157.097656 219.773438 155.300781 219.085938 153.632812 C 217.691406 150.300781 215.726562 147.398438 213.644531 144.679688 C 212.582031 143.339844 211.460938 142.058594 210.34375 140.78125 C 209.242188 139.566406 208.109375 138.195312 206.609375 137.015625 C 203.746094 134.699219 200.433594 133.292969 197.0625 132.3125 C 193.667969 131.390625 190.117188 131.046875 186.582031 131.429688 C 183.148438 131.859375 179.308594 132.957031 177.035156 136.203125 C 174.925781 139.59375 175.707031 143.5 176.769531 146.640625 C 177.84375 149.894531 179.542969 152.84375 181.148438 155.761719 C 184.285156 161.628906 185.25 168.421875 187.929688 174.578125 Z M 188.117188 174.5 C 185.535156 168.351562 184.683594 161.554688 181.582031 155.542969 C 180.019531 152.589844 178.484375 149.605469 177.53125 146.410156 C 176.574219 143.308594 176.085938 139.644531 177.96875 136.859375 C 179.945312 134.160156 183.472656 133.183594 186.703125 132.90625 C 190.019531 132.644531 193.367188 133.113281 196.554688 134.03125 C 199.71875 134.992188 202.824219 136.382812 205.375 138.507812 C 207.855469 140.664062 209.898438 143.402344 212.003906 145.957031 C 214.058594 148.582031 215.972656 151.339844 217.292969 154.386719 C 218.71875 157.429688 218.832031 160.808594 218.757812 164.140625 C 218.644531 170.785156 217.824219 177.5625 215.195312 183.695312 C 213.871094 186.691406 212.007812 189.703125 209.0625 191.261719 C 206.121094 192.886719 202.433594 192.308594 199.691406 190.480469 C 194.144531 186.695312 190.855469 180.5 188.117188 174.5 Z M 188.117188 174.5 "/></g></svg>